<svg width="62" height="63" viewBox="0 0 62 63" fill="none" xmlns="http://www.w3.org/2000/svg">
<path d="M31.9816 62.9532C21.6146 62.9532 11.232 62.9532 0.865065 62.9375C0.583609 62.9375 0.130152 63.1722 0.0363334 62.6559C-0.0574853 62.1864 -0.0105759 61.8265 0.677428 61.8421C2.94471 61.8891 5.212 61.8421 7.47928 61.8734C8.10474 61.8891 8.2611 61.6857 8.2611 61.0754C8.24547 51.8898 8.24547 42.7199 8.24547 33.5344C8.24547 32.8302 8.2611 32.126 8.22983 31.4219C8.21419 30.9055 8.35492 30.7021 8.93347 30.7021C12.1546 30.7333 15.3913 30.7177 18.6124 30.6864C19.0659 30.6864 19.1753 30.8272 19.191 31.2654C19.2066 31.7818 18.9408 31.7818 18.5655 31.7818C15.751 31.7661 12.9364 31.7818 10.1375 31.7661C9.57457 31.7661 9.30875 31.8444 9.30875 32.5173C9.32438 42.0627 9.32438 51.6082 9.30875 61.1536C9.30875 61.6857 9.44947 61.9047 10.0124 61.8578C10.5284 61.8108 11.06 61.8108 11.576 61.8578C12.1546 61.9047 12.264 61.6544 12.264 61.138C12.2328 59.4167 12.2484 57.6954 12.264 55.974C12.264 54.331 13.296 53.2199 14.7815 53.1886C16.3139 53.1573 17.4084 54.2997 17.4241 55.9427C17.4397 57.6954 17.4397 59.4323 17.4241 61.1849C17.4241 61.6857 17.5492 61.8891 18.0808 61.8578C18.6437 61.8108 19.2223 61.8265 19.8008 61.8578C20.2073 61.8734 20.3637 61.717 20.3324 61.3101C20.3168 61.0284 20.3324 60.7311 20.3324 60.4494C20.3324 47.8213 20.3324 35.2088 20.3324 22.5806C20.3324 21.5948 20.3324 21.5948 21.3488 21.5948C28.5103 21.5948 35.6874 21.6104 42.8489 21.5791C43.5369 21.5791 43.7558 21.7356 43.7558 22.4711C43.7246 35.2714 43.7402 48.0717 43.7246 60.8876C43.7246 61.67 43.9122 61.9047 44.7097 61.8734C46.6329 61.8108 46.6329 61.8578 46.6329 59.9018C46.6329 58.6029 46.6329 57.2885 46.6329 55.9897C46.6486 54.3153 47.6962 53.1886 49.2442 53.2043C50.7297 53.2043 51.793 54.331 51.8242 55.9584C51.8399 57.711 51.8399 59.448 51.8242 61.2006C51.8242 61.6857 51.9337 61.9204 52.4653 61.8734C53.0126 61.8265 53.5599 61.8265 54.1072 61.8734C54.5919 61.9047 54.7326 61.717 54.717 61.2475C54.6857 59.9956 54.717 58.7438 54.717 57.4919C54.717 49.2296 54.7013 40.9517 54.7326 32.6894C54.7326 31.9696 54.5606 31.7661 53.8413 31.7818C51.0893 31.8287 48.3217 31.7818 45.5697 31.8131C45.0537 31.8131 44.8817 31.6879 44.8817 31.1715C44.866 30.5769 45.2569 30.7177 45.5697 30.7177C48.7282 30.7177 51.8711 30.7333 55.0297 30.7021C55.6864 30.7021 55.8428 30.9055 55.8428 31.5314C55.8272 41.3116 55.8272 51.0918 55.8272 60.872C55.8272 61.8578 55.8272 61.8578 56.8435 61.8578C58.9545 61.8578 61.0654 61.8578 63.1763 61.8578C63.5359 61.8578 64.0363 61.6387 64.0363 62.3742C64.0519 63.1723 63.5203 62.9375 63.1294 62.9375C52.7312 62.9532 42.3642 62.9532 31.9816 62.9532ZM42.63 42.2818C42.63 36.0225 42.6144 29.7632 42.6456 23.5038C42.6456 22.8466 42.458 22.6901 41.8169 22.6901C35.2809 22.7058 28.7292 22.7058 22.1932 22.6901C21.5052 22.6901 21.3957 22.9249 21.3957 23.5508C21.427 27.3533 21.4114 31.1559 21.4114 34.9584C21.4114 43.6745 21.4114 52.3749 21.3957 61.091C21.3957 61.6857 21.5208 61.9204 22.1619 61.8891C23.4128 61.8421 24.6637 61.8265 25.9146 61.8891C26.6027 61.9204 26.7277 61.6544 26.7121 61.0441C26.6808 58.4308 26.6808 55.8332 26.6965 53.2199C26.7121 50.0903 29.0107 47.743 32.0285 47.7587C35.0463 47.7743 37.3136 50.1216 37.3136 53.2512C37.3136 55.8645 37.3449 58.4621 37.298 61.0754C37.2823 61.7483 37.5013 61.9204 38.1267 61.8891C39.3307 61.8421 40.5191 61.8265 41.7231 61.8891C42.4424 61.9204 42.63 61.7013 42.63 60.9815C42.6144 54.7378 42.63 48.5098 42.63 42.2818ZM31.4812 55.4263C31.4812 53.5016 31.4812 51.5612 31.4812 49.6365C31.4812 48.8228 31.4343 48.7915 30.6369 49.0731C29.0107 49.6521 27.8536 51.1544 27.8223 52.9383C27.7754 55.7237 27.8223 58.5247 27.791 61.3101C27.791 61.7796 27.9787 61.8891 28.3852 61.8734C29.167 61.8421 29.9489 61.8265 30.7307 61.8734C31.3092 61.9047 31.4969 61.7326 31.4812 61.138C31.45 59.2445 31.4812 57.3354 31.4812 55.4263ZM36.2347 57.0381C36.2347 55.7393 36.2347 54.4249 36.2347 53.1261C36.2347 53.0791 36.2347 53.0165 36.2347 52.9696C36.1722 51.1231 34.9369 49.4956 33.2325 48.9949C32.826 48.8697 32.5601 48.8228 32.5601 49.4174C32.5758 53.3764 32.5758 57.3511 32.5601 61.3101C32.5601 61.717 32.6852 61.8578 33.1074 61.8578C33.9361 61.8421 34.7805 61.8265 35.6092 61.8578C36.1565 61.8891 36.2503 61.6544 36.2503 61.1693C36.2191 59.8079 36.2347 58.4308 36.2347 57.0381ZM50.7141 58.6186C50.7141 58.1804 50.7141 57.7423 50.7141 57.2885C50.7141 56.8347 50.7297 56.3965 50.7141 55.9584C50.6828 54.9413 50.1042 54.2997 49.2286 54.2997C48.3217 54.284 47.7275 54.9256 47.7119 55.9897C47.6962 57.179 47.6806 58.3839 47.7119 59.5731C47.7275 60.3086 47.3679 61.3258 47.8839 61.7326C48.3686 62.1082 49.3224 61.8108 50.073 61.8734C50.6202 61.9204 50.7297 61.67 50.7141 61.1849C50.6984 60.3243 50.7141 59.4793 50.7141 58.6186ZM16.3295 58.556C16.3295 57.6171 16.3608 56.6782 16.3139 55.755C16.2826 54.8787 15.6259 54.284 14.7971 54.2997C13.9684 54.3153 13.3586 54.91 13.3429 55.8019C13.3273 57.6484 13.3429 59.4949 13.3273 61.3414C13.3273 61.7639 13.4837 61.8891 13.8746 61.8734C14.5 61.8421 15.1255 61.8421 15.751 61.8734C16.2044 61.8891 16.3451 61.7326 16.3295 61.2945C16.3139 60.3712 16.3295 59.4636 16.3295 58.556Z" fill="black"/>
<path d="M8.22975 14.1776C8.22975 9.70223 8.24538 5.21117 8.21411 0.735763C8.21411 0.21937 8.30793 -0.0153547 8.88648 0.0159419C9.35557 0.0315902 9.44939 0.203721 9.44939 0.626225C9.43376 2.31624 9.44939 4.0219 9.44939 5.71192C9.44939 8.05916 9.46503 10.4064 9.43375 12.7536C9.41812 13.3483 9.60576 13.5204 10.1843 13.5048C11.6698 13.4735 13.1552 13.4578 14.6407 13.5048C15.2505 13.5204 15.3756 13.3013 15.3756 12.738C15.36 8.77898 15.3912 4.81997 15.3443 0.845301C15.3287 0.078535 15.6258 -0.031003 16.2356 0.0315902C16.4858 0.0628867 16.6265 0.12548 16.6265 0.391501C16.6265 0.547984 16.6265 0.704466 16.6265 0.860949C16.6265 9.74918 16.6265 18.6374 16.6265 27.5256C16.6265 27.9168 16.7673 28.3706 16.0636 28.355C15.532 28.3393 15.36 28.2142 15.36 27.6665C15.3912 23.7074 15.36 19.7484 15.3912 15.7738C15.3912 15.0539 15.188 14.8505 14.4843 14.8662C13.0614 14.9288 11.6229 14.9131 10.1843 14.8662C9.57448 14.8505 9.44939 15.0539 9.44939 15.6173C9.46503 19.6076 9.46503 23.5979 9.46503 27.5882C9.46503 27.9794 9.55885 28.355 8.91775 28.355C8.3392 28.355 8.22975 28.1516 8.24538 27.6352C8.26102 24.7402 8.26102 21.8453 8.26102 18.9504C8.22975 17.3542 8.22975 15.7581 8.22975 14.1776Z" fill="black"/>
<path d="M27.0249 8.77879C27.0249 10.2341 27.0405 11.705 27.0249 13.1603C26.978 16.6342 23.835 18.5277 20.7234 16.9628C19.3317 16.2587 18.7688 15.0068 18.7532 13.5515C18.7063 10.3749 18.7063 7.18267 18.7532 4.00607C18.8001 1.54928 20.3638 0.109642 22.8812 0.0939941C25.3518 0.0939941 26.8842 1.50234 27.0249 3.92782C27.0249 4.00607 27.0405 4.08431 27.0405 4.16255C27.0249 5.71173 27.0249 7.24526 27.0249 8.77879ZM25.8052 8.76315C25.7896 8.76315 25.774 8.76315 25.7583 8.76315C25.7583 7.04183 25.8365 5.32052 25.7427 3.61486C25.6489 2.09698 24.6012 1.18937 23.1314 1.12678C21.3958 1.04854 20.3794 1.76836 20.051 3.34884C19.9728 3.7244 19.9572 4.13125 19.9572 4.50681C19.9416 7.33915 19.9572 10.1871 19.9572 13.0195C19.9572 13.5202 19.9885 14.0053 20.1292 14.4904C20.4263 15.4919 21.0674 16.1491 22.1307 16.3369C24.398 16.7281 25.7583 15.6014 25.8209 13.2855C25.8365 11.7833 25.8052 10.2654 25.8052 8.76315Z" fill="black"/>
<path d="M48.6188 14.3496C48.6188 9.96813 48.6188 5.58661 48.6188 1.20509C48.6188 0.782587 48.4312 0.266193 49.2443 0.281841C50.0886 0.29749 49.8228 0.84518 49.8228 1.23639C49.8385 9.46739 49.8385 17.714 49.8072 25.945C49.8072 26.7587 50.0417 26.9622 50.8079 26.9309C52.2621 26.8683 53.7319 26.9465 55.1861 26.8996C55.7803 26.8839 55.7803 27.1969 55.7803 27.6194C55.7803 28.0576 55.749 28.3392 55.1705 28.3236C53.1847 28.2923 51.2145 28.2923 49.2286 28.3236C48.5875 28.3392 48.6032 28.0106 48.6032 27.5568C48.6188 23.1753 48.6188 18.7625 48.6188 14.3496Z" fill="black"/>
<path d="M42.802 17.2602C41.7544 17.2602 40.7224 17.2445 39.6747 17.2758C39.2213 17.2915 39.0962 17.1193 39.0962 16.6968C39.1118 11.4234 39.1118 6.16554 39.0962 0.892068C39.0962 0.422619 39.2213 0.250488 39.706 0.250488C41.7857 0.266137 43.8809 0.266137 45.9606 0.266137C46.289 0.266137 46.5548 0.266137 46.5548 0.751233C46.5548 1.25198 46.3202 1.28328 45.9293 1.28328C44.2875 1.26763 42.6457 1.29892 41.0038 1.26763C40.4566 1.25198 40.2846 1.43976 40.3002 1.9718C40.3315 3.8183 40.3315 5.68044 40.3002 7.52694C40.3002 8.04333 40.4722 8.19982 40.9726 8.18417C42.2704 8.15287 43.5839 8.16852 44.8817 8.16852C45.1944 8.16852 45.4915 8.13722 45.4915 8.62232C45.5071 9.13871 45.2257 9.13871 44.866 9.13871C43.5682 9.12307 42.2548 9.15436 40.9569 9.12307C40.4253 9.10742 40.2846 9.2952 40.3002 9.79594C40.3158 11.752 40.3158 13.708 40.3002 15.664C40.3002 16.1491 40.4722 16.29 40.9413 16.29C42.5831 16.2743 44.2249 16.2743 45.8668 16.29C46.1951 16.29 46.5391 16.1961 46.5548 16.7594C46.5704 17.3697 46.1951 17.2758 45.8355 17.2758C44.8348 17.2602 43.8184 17.2602 42.802 17.2602Z" fill="black"/>
<path d="M32.3881 9.2639C32.3881 6.83842 32.3725 4.41293 32.4037 1.98745C32.4037 1.40846 32.2474 1.20503 31.6532 1.23633C30.7932 1.28328 29.9332 1.23633 29.0732 1.25198C28.6823 1.26763 28.5103 1.15809 28.5103 0.735585C28.5103 0.344378 28.6823 0.250488 29.0263 0.250488C31.6532 0.250488 34.2957 0.250488 36.9227 0.250488C37.3136 0.250488 37.4699 0.375675 37.4699 0.78253C37.4699 1.25198 37.2198 1.26763 36.8758 1.25198C36.047 1.23633 35.2027 1.29892 34.3739 1.23633C33.7328 1.18939 33.5921 1.42411 33.5921 2.03439C33.6077 6.68194 33.6077 11.3138 33.6077 15.9614C33.6077 16.0866 33.6077 16.2274 33.6077 16.3526C33.5921 16.7907 33.7954 17.2915 32.9823 17.2758C32.2161 17.2602 32.4037 16.7907 32.4037 16.3839C32.3881 14.021 32.3881 11.6424 32.3881 9.2639Z" fill="black"/>
<path d="M14.7971 39.7936C14.1403 39.7936 13.4992 39.7936 12.8425 39.7936C12.4829 39.7936 12.2014 39.6371 12.2014 39.2616C12.2014 38.9016 12.4516 38.7139 12.8112 38.7139C14.1403 38.7139 15.4538 38.7139 16.7829 38.7139C17.1269 38.7139 17.424 38.8547 17.424 39.2459C17.424 39.6841 17.1113 39.7936 16.736 39.7936C16.1105 39.7936 15.4538 39.7936 14.7971 39.7936Z" fill="black"/>
<path d="M49.1974 47.2577C48.5563 47.2577 47.8996 47.2577 47.2585 47.2577C46.8989 47.2577 46.6174 47.1169 46.6018 46.7413C46.5705 46.3188 46.8832 46.1624 47.2741 46.1624C48.572 46.1624 49.8698 46.1624 51.1676 46.1624C51.5272 46.1624 51.8087 46.2875 51.8243 46.6631C51.84 47.0856 51.5429 47.2421 51.152 47.2421C50.4952 47.2734 49.8541 47.2577 49.1974 47.2577Z" fill="black"/>
<path d="M49.1348 36.0851C48.5093 36.0851 47.8839 36.0851 47.2584 36.0851C46.9144 36.0851 46.6173 35.9599 46.6017 35.5843C46.586 35.1462 46.8831 35.0054 47.2584 35.0054C48.5562 35.0054 49.8541 35.0054 51.1519 35.0054C51.5272 35.0054 51.8399 35.1619 51.8086 35.6C51.793 35.9912 51.4802 36.1007 51.1519 36.1007C50.4795 36.0851 49.8071 36.0851 49.1348 36.0851Z" fill="black"/>
<path d="M49.213 49.8711C49.8541 49.8711 50.5108 49.8555 51.1519 49.8711C51.5272 49.8868 51.8399 50.0276 51.8086 50.4657C51.7773 50.8413 51.4959 50.9665 51.1363 50.9665C49.8384 50.9665 48.5406 50.9665 47.2428 50.9665C46.8988 50.9665 46.6017 50.8413 46.586 50.4657C46.5704 50.0432 46.8675 49.8868 47.2584 49.8711C47.9151 49.8555 48.5719 49.8555 49.213 49.8711Z" fill="black"/>
<path d="M49.1505 39.7936C48.5563 39.7936 47.9621 39.7936 47.368 39.7936C46.9771 39.7936 46.6018 39.7154 46.6174 39.2303C46.6331 38.8078 46.9614 38.7139 47.3367 38.7139C48.5876 38.7139 49.8229 38.7295 51.0738 38.7139C51.4804 38.7139 51.84 38.8078 51.8244 39.2772C51.8087 39.7623 51.4178 39.8093 51.0269 39.7936C50.4014 39.7936 49.776 39.7936 49.1505 39.7936Z" fill="black"/>
<path d="M14.8596 42.4383C15.5163 42.4383 16.1574 42.4383 16.8141 42.4383C17.1738 42.4383 17.4396 42.5791 17.4552 42.9704C17.4552 43.3459 17.1894 43.518 16.8454 43.518C15.5163 43.518 14.2029 43.518 12.8738 43.518C12.5141 43.518 12.2327 43.3459 12.2327 42.986C12.2327 42.5791 12.5298 42.4227 12.9207 42.4383C13.5618 42.454 14.2029 42.4383 14.8596 42.4383Z" fill="black"/>
<path d="M49.2755 42.4382C49.901 42.4382 50.5264 42.4382 51.1519 42.4382C51.5584 42.4382 51.8399 42.5947 51.8242 43.0172C51.8086 43.3928 51.5271 43.5336 51.1675 43.5336C49.8697 43.5336 48.5719 43.5336 47.274 43.5336C46.8831 43.5336 46.586 43.3771 46.6017 42.9546C46.6173 42.5791 46.8988 42.4539 47.2584 42.4539C47.9308 42.4382 48.6031 42.4382 49.2755 42.4382Z" fill="black"/>
<path d="M14.7814 47.258C14.156 47.258 13.5305 47.258 12.9207 47.258C12.5454 47.258 12.217 47.1171 12.217 46.7103C12.217 46.2878 12.5298 46.1782 12.9207 46.1782C14.1872 46.1782 15.4694 46.1782 16.736 46.1782C17.1112 46.1782 17.4396 46.2878 17.4396 46.7259C17.4396 47.1484 17.1112 47.2736 16.736 47.2736C16.0792 47.258 15.4381 47.258 14.7814 47.258Z" fill="black"/>
<path d="M14.8284 36.0851C14.1717 36.0851 13.5306 36.0851 12.8739 36.0851C12.5299 36.0851 12.2328 35.9443 12.2171 35.5687C12.2015 35.1462 12.4986 34.9897 12.8895 34.9897C14.1873 34.9897 15.4852 34.9897 16.783 34.9897C17.127 34.9897 17.4241 35.1306 17.4397 35.5061C17.4554 35.9443 17.1426 36.0695 16.7673 36.0851C16.1263 36.0851 15.4695 36.0851 14.8284 36.0851Z" fill="black"/>
<path d="M14.8285 49.8556C15.4696 49.8556 16.1263 49.8399 16.7674 49.8556C17.1427 49.8556 17.4554 50.0121 17.4241 50.4502C17.4085 50.8414 17.0958 50.951 16.7674 50.951C15.4696 50.951 14.1717 50.951 12.8739 50.951C12.5299 50.951 12.2172 50.8258 12.2015 50.4502C12.1859 50.0434 12.4674 49.8712 12.8739 49.8556C13.5306 49.8712 14.1717 49.8712 14.8285 49.8556C14.8285 49.8712 14.8285 49.8712 14.8285 49.8556Z" fill="black"/>
<path d="M32.0911 25.4129C34.2802 25.4129 36.4693 25.4129 38.6428 25.4129C39.0181 25.4129 39.5185 25.3346 39.5341 25.898C39.5497 26.477 39.0806 26.4926 38.6428 26.4926C34.2177 26.4926 29.7926 26.4926 25.3831 26.4926C24.9922 26.4926 24.5231 26.5552 24.5074 25.9919C24.4918 25.3816 24.9765 25.4129 25.3987 25.4129C27.6191 25.4129 29.8551 25.4129 32.0911 25.4129Z" fill="black"/>
<path d="M36.9541 37.6656C36.3286 37.6656 35.7032 37.6656 35.0933 37.6656C34.7337 37.6656 34.3897 37.603 34.3741 37.1492C34.3584 36.6954 34.6868 36.5702 35.0464 36.5702C36.3443 36.5545 37.6421 36.5702 38.9399 36.5702C39.2839 36.5702 39.581 36.6954 39.581 37.0866C39.5966 37.5247 39.2839 37.6499 38.9086 37.6656C38.2519 37.6812 37.5952 37.6656 36.9541 37.6656Z" fill="black"/>
<path d="M27.0405 37.6655C26.3994 37.6655 25.7426 37.6811 25.1015 37.6655C24.7575 37.6655 24.4761 37.5403 24.4761 37.1334C24.4761 36.7265 24.7419 36.5857 25.0859 36.5857C26.3994 36.5701 27.7285 36.5701 29.0419 36.5857C29.3859 36.5857 29.6674 36.7265 29.6674 37.1334C29.6674 37.5246 29.4016 37.6655 29.0576 37.6811C28.3852 37.6655 27.7128 37.6655 27.0405 37.6655Z" fill="black"/>
<path d="M37.0166 29.1528C37.6577 29.1528 38.3144 29.1528 38.9555 29.1528C39.3308 29.1528 39.5653 29.3406 39.5653 29.7005C39.5653 30.0291 39.3464 30.2169 39.0024 30.2169C37.6264 30.2169 36.266 30.2169 34.89 30.2169C34.546 30.2169 34.3584 29.9978 34.3584 29.6692C34.3427 29.3093 34.5929 29.1685 34.9213 29.1685C35.6249 29.1372 36.3129 29.1528 37.0166 29.1528Z" fill="black"/>
<path d="M27.0718 45.0983C26.4307 45.0983 25.774 45.0983 25.1329 45.0983C24.7889 45.0983 24.5074 44.9731 24.4918 44.5819C24.4762 44.1438 24.7733 44.0029 25.1642 44.0029C26.462 44.0029 27.7598 44.0029 29.0577 44.0029C29.4017 44.0029 29.6831 44.1281 29.6987 44.5193C29.7144 44.9575 29.4173 45.0827 29.0264 45.0827C28.3696 45.0983 27.7129 45.0983 27.0718 45.0983Z" fill="black"/>
<path d="M27.0248 30.2326C26.4306 30.2326 25.8364 30.2326 25.2423 30.2326C24.8357 30.2326 24.4761 30.1544 24.4917 29.6693C24.4917 29.2311 24.8201 29.1372 25.1953 29.1372C26.4619 29.1372 27.7285 29.1372 28.995 29.1372C29.3859 29.1372 29.6986 29.2624 29.6674 29.6849C29.6517 30.0918 29.339 30.2326 28.9637 30.2169C28.3226 30.2326 27.6659 30.2326 27.0248 30.2326Z" fill="black"/>
<path d="M36.9384 45.0983C36.2817 45.0983 35.6406 45.0983 34.9839 45.0983C34.6242 45.0983 34.3584 44.9575 34.3584 44.5663C34.3584 44.1907 34.5929 44.0029 34.9682 44.0029C36.2973 44.0029 37.6108 44.0029 38.9399 44.0029C39.2995 44.0029 39.5654 44.1594 39.5654 44.535C39.5654 44.9731 39.2683 45.0983 38.8774 45.0827C38.2363 45.0983 37.5795 45.0983 36.9384 45.0983Z" fill="black"/>
<path d="M37.0166 32.8928C37.6421 32.8928 38.2675 32.9085 38.8774 32.8928C39.2683 32.8772 39.581 33.0024 39.5654 33.4249C39.5497 33.8317 39.2214 33.9726 38.8461 33.9569C37.5795 33.9569 36.2973 33.9569 35.0308 33.9569C34.6711 33.9569 34.3428 33.8317 34.3428 33.3936C34.3584 32.9398 34.6868 32.8772 35.0621 32.8772C35.7031 32.8772 36.3599 32.8772 37.001 32.8772C37.0166 32.8772 37.0166 32.8928 37.0166 32.8928Z" fill="black"/>
<path d="M36.9853 41.3741C36.313 41.3741 35.6406 41.3741 34.9682 41.3741C34.6086 41.3741 34.3584 41.2177 34.3584 40.8265C34.3584 40.4822 34.6086 40.3101 34.9213 40.3101C36.2973 40.2944 37.6733 40.2944 39.0493 40.3101C39.3777 40.3101 39.581 40.5292 39.5654 40.8734C39.5497 41.2177 39.3464 41.3898 39.0024 41.3898C38.3301 41.3741 37.6577 41.3741 36.9853 41.3741Z" fill="black"/>
<path d="M27.0718 33.9256C26.3994 33.9256 25.727 33.9256 25.0547 33.9256C24.7263 33.9256 24.4918 33.7848 24.4761 33.4249C24.4605 33.0806 24.6794 32.8928 25.0078 32.8928C26.3838 32.8772 27.7441 32.8772 29.1201 32.8772C29.4485 32.8772 29.6674 33.0963 29.6518 33.4249C29.6361 33.7535 29.4172 33.9413 29.0889 33.9569C28.4165 33.9726 27.7441 33.9569 27.0718 33.9569C27.0718 33.9413 27.0718 33.9413 27.0718 33.9256Z" fill="black"/>
<path d="M27.0562 41.3742C26.4151 41.3742 25.7584 41.3742 25.1173 41.3742C24.7733 41.3742 24.4919 41.2646 24.4919 40.8578C24.4762 40.4666 24.742 40.3101 25.1017 40.3101C26.4151 40.2944 27.7442 40.2944 29.0577 40.2944C29.4017 40.2944 29.6832 40.4353 29.6832 40.8265C29.6988 41.2803 29.3861 41.3742 28.9952 41.3742C28.3541 41.3742 27.6973 41.3742 27.0562 41.3742Z" fill="black"/>
</svg>
