<svg width="51" height="50" viewBox="0 0 51 50" fill="none" xmlns="http://www.w3.org/2000/svg">
<path d="M0 49.3429C0 49.282 0 49.201 0 49.1401C0.217157 48.8563 0.454057 48.5725 0.651472 48.2685C3.37581 44.2142 6.11989 40.1802 8.80475 36.1057C9.2588 35.4165 9.71286 35.1327 10.542 35.1327C14.0955 35.1935 17.649 35.1327 21.1827 35.1732C22.0514 35.1935 22.2685 35.0313 21.8737 34.1597C21.0248 32.2947 20.3338 30.3689 19.7613 28.4026C19.5837 27.7742 19.2678 27.4093 18.6953 27.085C13.5625 24.1862 10.9566 18.794 11.6278 12.5707C12.2003 7.34071 16.2078 2.6175 21.3999 1.01607C22.0119 0.833626 22.6831 0.853897 23.2556 0.489014C24.5783 0.489014 25.8812 0.489014 27.2039 0.489014C27.3224 0.549828 27.4211 0.651184 27.5395 0.671455C33.5015 1.88773 37.9433 6.48932 38.8317 12.3883C39.7398 18.4697 36.9365 24.2267 31.6063 27.2066C31.2115 27.4296 30.9351 27.6728 30.7969 28.1391C30.2046 30.2676 29.3952 32.3352 28.5266 34.3826C28.2107 35.1327 28.4279 35.2138 29.0794 35.1935C31.8037 35.1732 34.528 35.1732 37.2524 35.1935C38.4961 35.2138 39.9372 34.7475 40.9243 35.3557C41.9114 35.9638 42.4444 37.3422 43.1551 38.3761C45.6031 41.9641 48.0313 45.5521 50.4792 49.1401C50.4792 49.201 50.4792 49.282 50.4792 49.3429C33.6989 49.3429 16.8396 49.3429 0 49.3429ZM25.2692 33.8961C26.4142 31.3622 27.3026 28.9905 27.9738 26.5376C28.2305 25.5646 28.6845 25.0376 29.5532 24.5916C33.7581 22.4631 35.8902 18.9764 35.752 14.1113C35.6336 9.65164 32.6526 5.6582 28.4674 4.30002C24.2229 2.92157 19.5837 4.42165 16.9185 8.02994C12.7333 13.7059 14.668 21.5306 21.0643 24.6321C21.8737 25.0376 22.308 25.5241 22.5449 26.4363C23.2161 28.9094 24.1242 31.3217 25.2692 33.8961ZM21.6368 46.0184C21.6565 45.9576 21.6763 45.8967 21.696 45.8157C18.4584 43.4642 15.201 41.1127 11.9831 38.7612C11.3712 38.3153 11.0553 38.5991 10.7197 39.1058C9.41674 41.0519 8.11379 42.9979 6.81085 44.944C6.59369 45.2683 6.23834 45.5116 6.29757 46.0184C11.4106 46.0184 16.5237 46.0184 21.6368 46.0184ZM44.2606 46.0184C44.3001 45.6535 44.1027 45.4913 43.9843 45.2886C42.6023 43.2412 41.2007 41.1938 39.8583 39.1261C39.3845 38.3964 38.9896 38.4166 38.3579 38.9031C35.4361 41.133 32.4749 43.3223 29.5334 45.5521C29.3952 45.6535 29.1386 45.7143 29.2768 46.0386C34.2517 46.0184 39.2265 46.0184 44.2606 46.0184ZM17.5305 38.4977C17.5108 38.5585 17.491 38.6396 17.4713 38.7004C20.0377 40.5654 22.6041 42.4101 25.1508 44.2953C25.5654 44.5994 25.743 44.275 25.9997 44.0926C27.5987 42.8966 29.1978 41.7208 30.7771 40.5248C31.5865 39.9167 32.3762 39.3086 33.1856 38.7004C31.1127 38.4977 29.1188 38.4977 27.1249 38.4977C26.6906 38.4977 26.5919 38.8423 26.4537 39.1261C26.0786 39.8762 25.7035 40.6465 25.2495 41.5587C24.7954 40.6262 24.4401 39.8762 24.065 39.1261C23.9268 38.8626 23.8676 38.518 23.4925 38.518C21.5183 38.4977 19.5244 38.4977 17.5305 38.4977Z" fill="#F39629"/>
<path d="M29.8295 14.7612C29.79 17.3762 27.7763 19.3831 25.1902 19.3628C22.6238 19.3426 20.6694 17.2141 20.7286 14.4977C20.7681 11.9435 22.8212 9.9164 25.3086 9.93667C27.8751 9.95695 29.869 12.0652 29.8295 14.7612Z" fill="#F39629"/>
</svg>
