<svg width="36" height="36" viewBox="0 0 36 36" fill="none" xmlns="http://www.w3.org/2000/svg">
<path d="M23.0654 17.9902C23.0654 19.4406 22.4893 20.8316 21.4637 21.8572C20.4381 22.8828 19.0471 23.459 17.5967 23.459C16.1463 23.459 14.7553 22.8828 13.7297 21.8572C12.7041 20.8316 12.1279 19.4406 12.1279 17.9902C12.1279 17.6785 12.1607 17.3741 12.2173 17.0788H10.305V24.365C10.305 24.8717 10.7152 25.2819 11.2219 25.2819H23.9732C24.2161 25.2814 24.4489 25.1846 24.6204 25.0127C24.792 24.8408 24.8883 24.6078 24.8883 24.365V17.0788H22.9761C23.0326 17.3741 23.0654 17.6785 23.0654 17.9902ZM17.5967 21.6361C18.0756 21.6359 18.5498 21.5415 18.9922 21.3581C19.4346 21.1747 19.8365 20.906 20.1751 20.5673C20.5136 20.2286 20.7821 19.8265 20.9653 19.384C21.1484 18.9415 21.2426 18.4673 21.2425 17.9884C21.2424 17.5095 21.1479 17.0353 20.9646 16.5929C20.7812 16.1505 20.5125 15.7486 20.1738 15.41C19.835 15.0715 19.433 14.803 18.9905 14.6198C18.548 14.4367 18.0738 14.3425 17.5949 14.3426C16.6277 14.3428 15.7002 14.7273 15.0165 15.4113C14.3328 16.0954 13.9488 17.0231 13.949 17.9902C13.9493 18.9574 14.3337 19.8849 15.0178 20.5686C15.7018 21.2523 16.6295 21.6363 17.5967 21.6361ZM21.9717 14.1621H24.1574C24.3026 14.1621 24.4419 14.1046 24.5447 14.002C24.6476 13.8995 24.7056 13.7604 24.7061 13.6152V11.4296C24.7061 11.284 24.6482 11.1445 24.5453 11.0416C24.4424 10.9387 24.3029 10.8809 24.1574 10.8809H21.9717C21.8262 10.8809 21.6866 10.9387 21.5837 11.0416C21.4808 11.1445 21.423 11.284 21.423 11.4296V13.6152C21.4248 13.916 21.6709 14.1621 21.9717 14.1621ZM17.5967 0.490234C12.9554 0.490234 8.5042 2.33398 5.22231 5.61587C1.94042 8.89775 0.0966797 13.3489 0.0966797 17.9902C0.0966797 22.6315 1.94042 27.0827 5.22231 30.3646C8.5042 33.6465 12.9554 35.4902 17.5967 35.4902C19.8948 35.4902 22.1704 35.0376 24.2936 34.1581C26.4168 33.2787 28.346 31.9896 29.971 30.3646C31.5961 28.7396 32.8851 26.8104 33.7646 24.6872C34.644 22.564 35.0967 20.2884 35.0967 17.9902C35.0967 15.6921 34.644 13.4165 33.7646 11.2933C32.8851 9.17008 31.5961 7.24089 29.971 5.61587C28.346 3.99084 26.4168 2.7018 24.2936 1.82234C22.1704 0.942885 19.8948 0.490234 17.5967 0.490234ZM26.7113 25.0796C26.7113 26.1934 25.7998 27.1048 24.686 27.1048H10.5074C9.39355 27.1048 8.4821 26.1934 8.4821 25.0796V10.9009C8.4821 9.78711 9.39355 8.87565 10.5074 8.87565H24.686C25.7998 8.87565 26.7113 9.78711 26.7113 10.9009V25.0796Z" fill="#B4B4B4"/>
</svg>
