<svg width="21" height="20" viewBox="0 0 21 20" fill="none" xmlns="http://www.w3.org/2000/svg">
<path d="M0 19.6308C0 19.6063 0 19.5738 0 19.5493C0.0872596 19.4353 0.182452 19.3212 0.261779 19.1991C1.35649 17.5699 2.45913 15.949 3.53798 14.3117C3.72043 14.0348 3.90288 13.9207 4.23606 13.9207C5.66394 13.9452 7.09183 13.9207 8.51178 13.937C8.86082 13.9452 8.94808 13.88 8.78942 13.5298C8.44832 12.7804 8.17067 12.0065 7.94062 11.2164C7.86923 10.9639 7.74231 10.8173 7.51226 10.687C5.44976 9.52215 4.40264 7.35543 4.67236 4.85475C4.9024 2.7532 6.51274 0.855282 8.59904 0.211784C8.84495 0.138474 9.11466 0.14662 9.34471 0C9.8762 0 10.3998 0 10.9312 0C10.9788 0.0244366 11.0185 0.0651644 11.0661 0.0733099C13.4618 0.562043 15.2466 2.41108 15.6036 4.78144C15.9685 7.2251 14.8421 9.53844 12.7002 10.7358C12.5416 10.8254 12.4305 10.9232 12.375 11.1105C12.137 11.9658 11.8118 12.7967 11.4627 13.6194C11.3358 13.9207 11.4231 13.9533 11.6849 13.9452C12.7796 13.937 13.8743 13.937 14.969 13.9452C15.4687 13.9533 16.0478 13.766 16.4445 14.0103C16.8411 14.2547 17.0553 14.8086 17.3409 15.224C18.3245 16.6658 19.3002 18.1076 20.2839 19.5493C20.2839 19.5738 20.2839 19.6063 20.2839 19.6308C13.5411 19.6308 6.76659 19.6308 0 19.6308ZM10.1538 13.4239C10.6139 12.4057 10.9709 11.4526 11.2406 10.467C11.3437 10.076 11.5262 9.86426 11.8752 9.68506C13.5649 8.82977 14.4216 7.42874 14.3661 5.47381C14.3185 3.68179 13.1207 2.07711 11.4389 1.53136C9.73341 0.977466 7.86923 1.58024 6.79832 3.03014C5.11659 5.3109 5.89399 8.45508 8.46418 9.70135C8.78942 9.86426 8.96394 10.0598 9.05913 10.4263C9.32885 11.4201 9.69375 12.3894 10.1538 13.4239ZM8.69423 18.2949C8.70216 18.2705 8.7101 18.246 8.71803 18.2134C7.41707 17.2686 6.10817 16.3237 4.81514 15.3788C4.56923 15.1996 4.44231 15.3136 4.30745 15.5173C3.78389 16.2992 3.26034 17.0812 2.73678 17.8632C2.64952 17.9935 2.50673 18.0913 2.53053 18.2949C4.5851 18.2949 6.63966 18.2949 8.69423 18.2949ZM17.7851 18.2949C17.801 18.1483 17.7216 18.0831 17.674 18.0017C17.1187 17.179 16.5555 16.3563 16.0161 15.5254C15.8257 15.2322 15.6671 15.2403 15.4132 15.4358C14.2392 16.3318 13.0493 17.2115 11.8673 18.1076C11.8118 18.1483 11.7087 18.1727 11.7642 18.303C13.7632 18.2949 15.7623 18.2949 17.7851 18.2949ZM7.04423 15.2729C7.0363 15.2973 7.02837 15.3299 7.02043 15.3544C8.05168 16.1037 9.08293 16.845 10.1062 17.6025C10.2728 17.7247 10.3442 17.5944 10.4474 17.5211C11.0899 17.0405 11.7325 16.568 12.3671 16.0875C12.6923 15.8431 13.0096 15.5987 13.3349 15.3544C12.5019 15.2729 11.7007 15.2729 10.8995 15.2729C10.725 15.2729 10.6853 15.4114 10.6298 15.5254C10.4791 15.8268 10.3284 16.1363 10.1459 16.5029C9.96346 16.1282 9.82067 15.8268 9.66995 15.5254C9.61442 15.4195 9.59062 15.281 9.4399 15.281C8.64663 15.2729 7.84543 15.2729 7.04423 15.2729Z" fill="#F39629"/>
<path d="M11.9864 5.73411C11.9705 6.78489 11.1614 7.5913 10.1222 7.58315C9.09092 7.57501 8.30559 6.71972 8.32938 5.62822C8.34525 4.60188 9.17025 3.78733 10.1698 3.79547C11.201 3.80362 12.0022 4.65075 11.9864 5.73411Z" fill="#F39629"/>
</svg>
