<svg width="55" height="14" viewBox="0 0 55 14" fill="none" xmlns="http://www.w3.org/2000/svg">
<path d="M3.88614 11.18C3.42614 11.18 3.03114 11.11 2.70114 10.97C2.38114 10.83 2.11614 10.635 1.90614 10.385C1.70614 10.135 1.55614 9.835 1.45614 9.485C1.36614 9.125 1.32114 8.73 1.32114 8.3V5.285H0.301143V3.65L1.44114 3.56L1.69614 1.58H3.52614V3.56H5.31114V5.285H3.52614V8.27C3.52614 8.69 3.61114 8.995 3.78114 9.185C3.96114 9.365 4.19614 9.455 4.48614 9.455C4.60614 9.455 4.72614 9.44 4.84614 9.41C4.97614 9.38 5.09114 9.345 5.19114 9.305L5.53614 10.91C5.33614 10.97 5.10114 11.03 4.83114 11.09C4.56114 11.15 4.24614 11.18 3.88614 11.18ZM9.09466 11.18C8.62466 11.18 8.16966 11.095 7.72966 10.925C7.28966 10.745 6.89966 10.49 6.55966 10.16C6.22966 9.83 5.96466 9.425 5.76466 8.945C5.56466 8.455 5.46466 7.9 5.46466 7.28C5.46466 6.66 5.56466 6.11 5.76466 5.63C5.96466 5.14 6.22966 4.73 6.55966 4.4C6.89966 4.07 7.28966 3.82 7.72966 3.65C8.16966 3.47 8.62466 3.38 9.09466 3.38C9.56466 3.38 10.0147 3.47 10.4447 3.65C10.8847 3.82 11.2697 4.07 11.5997 4.4C11.9397 4.73 12.2097 5.14 12.4097 5.63C12.6097 6.11 12.7097 6.66 12.7097 7.28C12.7097 7.9 12.6097 8.455 12.4097 8.945C12.2097 9.425 11.9397 9.83 11.5997 10.16C11.2697 10.49 10.8847 10.745 10.4447 10.925C10.0147 11.095 9.56466 11.18 9.09466 11.18ZM9.09466 9.395C9.54466 9.395 9.88466 9.205 10.1147 8.825C10.3447 8.445 10.4597 7.93 10.4597 7.28C10.4597 6.63 10.3447 6.115 10.1147 5.735C9.88466 5.355 9.54466 5.165 9.09466 5.165C8.63466 5.165 8.28966 5.355 8.05966 5.735C7.83966 6.115 7.72966 6.63 7.72966 7.28C7.72966 7.93 7.83966 8.445 8.05966 8.825C8.28966 9.205 8.63466 9.395 9.09466 9.395ZM16.275 11.18C15.815 11.18 15.395 11.09 15.015 10.91C14.645 10.73 14.325 10.475 14.055 10.145C13.795 9.805 13.59 9.395 13.44 8.915C13.3 8.435 13.23 7.89 13.23 7.28C13.23 6.67 13.315 6.125 13.485 5.645C13.665 5.165 13.895 4.76 14.175 4.43C14.465 4.09 14.795 3.83 15.165 3.65C15.545 3.47 15.93 3.38 16.32 3.38C16.74 3.38 17.085 3.45 17.355 3.59C17.625 3.73 17.89 3.92 18.15 4.16L18.06 3.02V0.484999H20.265V11H18.465L18.315 10.265H18.255C17.995 10.525 17.69 10.745 17.34 10.925C16.99 11.095 16.635 11.18 16.275 11.18ZM16.845 9.38C17.085 9.38 17.3 9.33 17.49 9.23C17.69 9.13 17.88 8.955 18.06 8.705V5.66C17.86 5.48 17.655 5.355 17.445 5.285C17.235 5.215 17.03 5.18 16.83 5.18C16.48 5.18 16.17 5.35 15.9 5.69C15.63 6.02 15.495 6.54 15.495 7.25C15.495 7.99 15.61 8.53 15.84 8.87C16.08 9.21 16.415 9.38 16.845 9.38ZM24.8136 11.18C24.3436 11.18 23.8886 11.095 23.4486 10.925C23.0086 10.745 22.6186 10.49 22.2786 10.16C21.9486 9.83 21.6836 9.425 21.4836 8.945C21.2836 8.455 21.1836 7.9 21.1836 7.28C21.1836 6.66 21.2836 6.11 21.4836 5.63C21.6836 5.14 21.9486 4.73 22.2786 4.4C22.6186 4.07 23.0086 3.82 23.4486 3.65C23.8886 3.47 24.3436 3.38 24.8136 3.38C25.2836 3.38 25.7336 3.47 26.1636 3.65C26.6036 3.82 26.9886 4.07 27.3186 4.4C27.6586 4.73 27.9286 5.14 28.1286 5.63C28.3286 6.11 28.4286 6.66 28.4286 7.28C28.4286 7.9 28.3286 8.455 28.1286 8.945C27.9286 9.425 27.6586 9.83 27.3186 10.16C26.9886 10.49 26.6036 10.745 26.1636 10.925C25.7336 11.095 25.2836 11.18 24.8136 11.18ZM24.8136 9.395C25.2636 9.395 25.6036 9.205 25.8336 8.825C26.0636 8.445 26.1786 7.93 26.1786 7.28C26.1786 6.63 26.0636 6.115 25.8336 5.735C25.6036 5.355 25.2636 5.165 24.8136 5.165C24.3536 5.165 24.0086 5.355 23.7786 5.735C23.5586 6.115 23.4486 6.63 23.4486 7.28C23.4486 7.93 23.5586 8.445 23.7786 8.825C24.0086 9.205 24.3536 9.395 24.8136 9.395ZM30.4667 11L28.6067 3.56H30.7967L31.5167 7.01C31.5767 7.38 31.6317 7.745 31.6817 8.105C31.7317 8.465 31.7867 8.835 31.8467 9.215H31.9067C31.9767 8.835 32.0417 8.46 32.1017 8.09C32.1717 7.72 32.2517 7.36 32.3417 7.01L33.1667 3.56H35.0717L35.9117 7.01C36.0017 7.38 36.0817 7.745 36.1517 8.105C36.2217 8.465 36.2967 8.835 36.3767 9.215H36.4367C36.5067 8.835 36.5617 8.465 36.6017 8.105C36.6517 7.745 36.7117 7.38 36.7817 7.01L37.4867 3.56H39.5267L37.7417 11H35.1617L34.4867 8.03C34.4067 7.68 34.3367 7.33 34.2767 6.98C34.2167 6.63 34.1517 6.255 34.0817 5.855H34.0217C33.9517 6.255 33.8867 6.63 33.8267 6.98C33.7767 7.33 33.7167 7.68 33.6467 8.03L32.9867 11H30.4667ZM41.9958 11.18C41.6558 11.18 41.3458 11.12 41.0658 11C40.7958 10.89 40.5658 10.735 40.3758 10.535C40.1858 10.325 40.0358 10.085 39.9258 9.815C39.8258 9.545 39.7758 9.25 39.7758 8.93C39.7758 8.15 40.1058 7.54 40.7658 7.1C41.4258 6.66 42.4908 6.365 43.9608 6.215C43.9408 5.885 43.8408 5.625 43.6608 5.435C43.4908 5.235 43.2008 5.135 42.7908 5.135C42.4708 5.135 42.1508 5.195 41.8308 5.315C41.5208 5.435 41.1858 5.6 40.8258 5.81L40.0308 4.355C40.5108 4.065 41.0108 3.83 41.5308 3.65C42.0608 3.47 42.6208 3.38 43.2108 3.38C44.1708 3.38 44.9008 3.655 45.4008 4.205C45.9108 4.745 46.1658 5.59 46.1658 6.74V11H44.3658L44.2158 10.235H44.1558C43.8358 10.515 43.5008 10.745 43.1508 10.925C42.8008 11.095 42.4158 11.18 41.9958 11.18ZM42.7458 9.47C42.9958 9.47 43.2108 9.415 43.3908 9.305C43.5708 9.195 43.7608 9.04 43.9608 8.84V7.535C43.1808 7.645 42.6408 7.805 42.3408 8.015C42.0408 8.225 41.8908 8.475 41.8908 8.765C41.8908 9.005 41.9658 9.185 42.1158 9.305C42.2758 9.415 42.4858 9.47 42.7458 9.47ZM48.2559 13.91C48.0259 13.91 47.8309 13.895 47.6709 13.865C47.5109 13.845 47.3559 13.81 47.2059 13.76L47.5959 12.08C47.6659 12.1 47.7459 12.12 47.8359 12.14C47.9259 12.16 48.0109 12.17 48.0909 12.17C48.4609 12.17 48.7459 12.08 48.9459 11.9C49.1459 11.72 49.2959 11.485 49.3959 11.195L49.5009 10.805L46.6359 3.56H48.8559L49.9209 6.755C50.0309 7.095 50.1309 7.44 50.2209 7.79C50.3109 8.14 50.4059 8.5 50.5059 8.87H50.5659C50.6459 8.52 50.7259 8.17 50.8059 7.82C50.8959 7.46 50.9859 7.105 51.0759 6.755L51.9759 3.56H54.0909L51.5109 11.075C51.3309 11.545 51.1409 11.955 50.9409 12.305C50.7509 12.665 50.5259 12.96 50.2659 13.19C50.0159 13.43 49.7259 13.61 49.3959 13.73C49.0759 13.85 48.6959 13.91 48.2559 13.91Z" fill="white"/>
</svg>
