<svg width="18" height="19" viewBox="0 0 18 19" fill="none" xmlns="http://www.w3.org/2000/svg">
<path d="M8.84532 0C7.87346 0 6.92343 0.293245 6.11536 0.842652C5.30729 1.39206 4.67748 2.17295 4.30556 3.08658C3.93365 4.00021 3.83634 5.00555 4.02594 5.97545C4.21554 6.94536 4.68353 7.83627 5.37074 8.53553C6.05795 9.2348 6.9335 9.711 7.88668 9.90393C8.83987 10.0969 9.82786 9.99784 10.7257 9.6194C11.6236 9.24096 12.3911 8.6001 12.931 7.77785C13.4709 6.95561 13.7591 5.98891 13.7591 5C13.7591 3.67392 13.2414 2.40215 12.3199 1.46447C11.3984 0.526784 10.1485 0 8.84532 0ZM8.84532 8C8.2622 8 7.69218 7.82405 7.20734 7.49441C6.7225 7.16476 6.34461 6.69623 6.12146 6.14805C5.89832 5.59987 5.83993 4.99667 5.95369 4.41473C6.06745 3.83279 6.34825 3.29824 6.76057 2.87868C7.17289 2.45912 7.69823 2.1734 8.27014 2.05764C8.84205 1.94189 9.43484 2.0013 9.97357 2.22836C10.5123 2.45542 10.9728 2.83994 11.2967 3.33329C11.6207 3.82664 11.7936 4.40666 11.7936 5C11.7936 5.79565 11.483 6.55871 10.9301 7.12132C10.3772 7.68393 9.62725 8 8.84532 8ZM17.6901 19V18C17.6901 16.1435 16.9654 14.363 15.6752 13.0503C14.3851 11.7375 12.6353 11 10.8108 11H6.8798C5.05529 11 3.30551 11.7375 2.01539 13.0503C0.725271 14.363 0.000488281 16.1435 0.000488281 18V19H1.96601V18C1.96601 16.6739 2.48371 15.4021 3.40522 14.4645C4.32674 13.5268 5.57658 13 6.8798 13H10.8108C12.1141 13 13.3639 13.5268 14.2854 14.4645C15.2069 15.4021 15.7246 16.6739 15.7246 18V19H17.6901Z" fill="white"/>
</svg>
