<svg width="48" height="53" viewBox="0 0 48 53" fill="none" xmlns="http://www.w3.org/2000/svg">
<path d="M13.36 49.5809H13.3602C17.6036 49.5894 21.8556 49.5894 26.0992 49.5894C30.0445 49.5894 33.9897 49.5894 37.9434 49.5809H37.9437C39.0531 49.5809 40.1404 49.4622 41.183 49.1004L41.1832 49.1004C45.8076 47.5046 48.4385 43.2102 47.7718 38.372C47.1564 33.8928 43.1493 30.2808 38.6316 30.1796C36.4887 30.1342 34.339 30.1426 32.193 30.151C31.9257 30.1521 31.6584 30.1531 31.3912 30.1541C26.3011 30.1713 22.7102 25.75 23.4696 21.0007C23.9273 18.141 26.2984 15.4476 29.1083 14.7382L29.1085 14.7382C30.0057 14.5137 30.9179 14.4539 31.8329 14.4453M13.36 49.5809L31.834 14.5453M13.36 49.5809C13.2081 49.5809 13.0678 49.5932 12.9459 49.6574C12.8202 49.7237 12.7285 49.837 12.6547 50.0077C12.0852 51.3207 10.6387 52.0902 9.25158 51.8671C7.76107 51.6268 6.6716 50.4938 6.51462 49.0223L6.51458 49.022C6.33264 47.3671 7.30572 45.9619 8.93029 45.5057C10.4058 45.0933 12.0352 45.8771 12.6806 47.3341L12.6807 47.3345C12.7397 47.4662 12.8093 47.5688 12.9106 47.636C13.0124 47.7034 13.1328 47.7261 13.2748 47.7261H13.2749C16.817 47.7225 20.3593 47.7235 23.9018 47.7246C28.6251 47.7259 33.3486 47.7273 38.0717 47.7176C41.5567 47.709 44.3455 45.7214 45.5699 42.4949L45.57 42.4946C46.814 39.1841 45.4501 35.1869 42.4538 33.2862L42.4537 33.2861C41.0731 32.4142 39.5801 32.0174 37.9607 32.0174C37.3087 32.0174 36.6572 32.0212 36.0061 32.025C34.2716 32.0351 32.5395 32.0452 30.8065 31.9833L30.8064 31.9833C26.4635 31.8314 22.879 28.879 21.7905 24.6577L21.7905 24.6577C20.5679 19.9246 23.2163 14.8944 27.8123 13.2068L27.8126 13.2067C29.1106 12.726 30.4524 12.5566 31.8315 12.5905L31.8315 12.5905C32.1631 12.5986 32.4196 12.6953 32.594 12.8508C32.767 13.0051 32.8678 13.225 32.8758 13.4986M13.36 49.5809L32.9758 13.4966M31.8329 14.4453C31.8329 14.4453 31.833 14.4453 31.833 14.4453L31.834 14.5453M31.8329 14.4453C31.8328 14.4453 31.8328 14.4453 31.8328 14.4453L31.834 14.5453M31.8329 14.4453C32.1764 14.4412 32.4378 14.3405 32.6114 14.1781C32.7839 14.0167 32.8796 13.7854 32.8758 13.4986M31.834 14.5453C32.5583 14.5368 32.9843 14.119 32.9758 13.4966M32.8758 13.4986C32.8758 13.4989 32.8758 13.4992 32.8758 13.4995L32.9758 13.4966M32.8758 13.4986C32.8758 13.4984 32.8758 13.4982 32.8758 13.498L32.9758 13.4966M8.35176 48.6309L8.45175 48.6322L8.35176 48.631C8.34257 49.3756 8.95651 50.0189 9.70313 50.0281C10.4309 50.0373 11.0904 49.4054 11.0996 48.6675C11.1088 47.9305 10.4769 47.2796 9.7397 47.2704C9.00209 47.2611 8.36096 47.8943 8.35176 48.6309Z" fill="black" stroke="white" stroke-width="0.2"/>
<path d="M19.2429 25.0381L19.2429 25.0383C19.5455 27.0989 18.9667 28.9534 18.1513 30.7893C16.6641 34.131 14.6746 37.1768 12.6045 40.1773C12.0623 40.9625 11.5022 41.7296 10.9433 42.4952C10.8356 42.6427 10.728 42.7901 10.6205 42.9376C10.3276 43.338 10.0214 43.5169 9.7328 43.5178C9.444 43.5188 9.13587 43.3416 8.83872 42.9453C6.3347 39.5536 3.95256 36.0802 2.02196 32.3274C1.299 30.9147 0.655832 29.4741 0.300703 27.9259C-0.128315 26.032 0.148589 24.2045 0.958431 22.4742L0.958602 22.4739C2.29189 19.5947 4.53336 17.7732 7.63105 17.0299C7.95845 16.9543 8.28677 16.9037 8.62562 16.8613C8.90648 16.8287 9.18647 16.8112 9.41458 16.797C9.4801 16.793 9.54135 16.7891 9.5971 16.7853C14.4799 16.7785 18.56 20.3482 19.2429 25.0381ZM9.63975 40.8972L9.72167 41.013L9.80323 40.8969C9.89718 40.7632 9.99104 40.6297 10.0848 40.4964C11.4183 38.5996 12.7242 36.7422 13.8887 34.795C15.0402 32.8833 16.1172 30.9338 16.9383 28.8372C17.5684 27.2307 17.6381 25.6119 17.0761 23.9767C15.8076 20.2813 12.2414 18.1561 8.3845 18.7863C3.84542 19.5203 0.688605 24.4762 2.5138 28.8816L2.51382 28.8817C3.30847 30.7968 4.25663 32.6171 5.31516 34.3937C6.62977 36.6229 8.1147 38.7404 9.63975 40.8972Z" fill="black" stroke="white" stroke-width="0.2"/>
<path d="M45.5724 9.95717H45.5724C45.5852 8.87089 45.5836 7.78482 45.582 6.69798C45.5815 6.33545 45.5809 5.97284 45.5809 5.6101C45.5809 4.88948 45.5831 4.17102 45.5852 3.45379L45.5852 3.45104C45.5873 2.73469 45.5895 2.01957 45.5895 1.30448C45.5895 0.860471 45.4917 0.565981 45.3066 0.380824C45.1216 0.195693 44.8295 0.1 44.3942 0.1H44.3834H44.3726H44.3617H44.3509H44.3401H44.3292H44.3184H44.3076H44.2967H44.2859H44.2751H44.2642H44.2534H44.2426H44.2317H44.2209H44.2101H44.1992H44.1884H44.1776H44.1667H44.1559H44.1451H44.1343H44.1234H44.1126H44.1018H44.0909H44.0801H44.0693H44.0584H44.0476H44.0368H44.026H44.0151H44.0043H43.9935H43.9826H43.9718H43.961H43.9502H43.9393H43.9285H43.9177H43.9069H43.896H43.8852H43.8744H43.8636H43.8527H43.8419H43.8311H43.8203H43.8094H43.7986H43.7878H43.7769H43.7661H43.7553H43.7445H43.7337H43.7228H43.712H43.7012H43.6904H43.6795H43.6687H43.6579H43.6471H43.6362H43.6254H43.6146H43.6038H43.593H43.5821H43.5713H43.5605H43.5497H43.5388H43.528H43.5172H43.5064H43.4956H43.4847H43.4739H43.4631H43.4523H43.4415H43.4306H43.4198H43.409H43.3982H43.3874H43.3765H43.3657H43.3549H43.3441H43.3333H43.3224H43.3116H43.3008H43.29H43.2792H43.2683H43.2575H43.2467H43.2359H43.2251H43.2143H43.2034H43.1926H43.1818H43.171H43.1602H43.1493H43.1385H43.1277H43.1169H43.1061H43.0953H43.0844H43.0736H43.0628H43.052H43.0412H43.0304H43.0195H43.0087H42.9979H42.9871H42.9763H42.9655H42.9547H42.9438H42.933H42.9222H42.9114H42.9006H42.8898H42.8789H42.8681H42.8573H42.8465H42.8357H42.8249H42.8141H42.8032H42.7924H42.7816H42.7708H42.76H42.7492H42.7384H42.7275H42.7167H42.7059H42.6951H42.6843H42.6735H42.6627H42.6519H42.641H42.6302H42.6194H42.6086H42.5978H42.587H42.5762H42.5654H42.5545H42.5437H42.5329H42.5221H42.5113H42.5005H42.4897H42.4789H42.468H42.4572H42.4464H42.4356H42.4248H42.414H42.4032H42.3924H42.3815H42.3707H42.3599H42.3491H42.3383H42.3275H42.3167H42.3059H42.2951H42.2842H42.2734H42.2626H42.2518H42.241H42.2302H42.2194H42.2086H42.1978H42.187H42.1761H42.1653H42.1545H42.1437H42.1329H42.1221H42.1113H42.1005H42.0897H42.0788H42.068H42.0572H42.0464H42.0356H42.0248H42.014H42.0032H41.9924H41.9816H41.9707H41.9599H41.9491H41.9383H41.9275H41.9167H41.9059H41.8951H41.8843H41.8735H41.8626H41.8518H41.841H41.8302H41.8194H41.8086H41.7978H41.787H41.7762H41.7654H41.7545H41.7437H41.7329H41.7221H41.7113H41.7005H41.6897H41.6789H41.6681H41.6573H41.6465H41.6356H41.6248H41.614H41.6032H41.5924H41.5816H41.5708H41.56H41.5492H41.5384H41.5275H41.5167H41.5059H41.4951H41.4843H41.4735H41.4627H41.4519H41.4411H41.4303H41.4194H41.4086H41.3978H41.387H41.3762H41.3654H41.3546H41.3438H41.333H41.3222H41.3113H41.3005H41.2897H41.2789H41.2681H41.2573H41.2465H41.2357H41.2249H41.2141H41.2032H41.1924H41.1816H41.1708H41.16H41.1492H41.1384H41.1276H41.1168H41.106H41.0951H41.0843H41.0735H41.0627H41.0519H41.0411H41.0303H41.0195H41.0087H40.9978H40.987H40.9762H40.9654H40.9546H40.9438H40.933H40.9222H40.9114H40.9005H40.8897H40.8789H40.8681H40.8573H40.8465H40.8357H40.8249H40.8141H40.8032H40.7924H40.7816H40.7708H40.76H40.7492H40.7384H40.7276H40.7167H40.7059H40.6951H40.6843H40.6735H40.6627H40.6519H40.6411H40.6302H40.6194H40.6086H40.5978H40.587H40.5762H40.5654H40.5546H40.5437H40.5329H40.5221H40.5113H40.5005H40.4897H40.4789H40.468H40.4572H40.4464H40.4356H40.4248H40.414H40.4032H40.3923H40.3815H40.3707H40.3599H40.3491H40.3383H40.3275H40.3166H40.3058H40.295H40.2842H40.2734H40.2626H40.2517H40.2409H40.2301H40.2193H40.2085H40.1977H40.1869H40.176H40.1652H40.1544H40.1436H40.1328H40.122H40.1111H40.1003H40.0895H40.0787H40.0679H40.057H40.0462H40.0354H40.0246H40.0138H40.003H39.9921H39.9813H39.9705H39.9597H39.9489H39.938H39.9272H39.9164H39.9056H39.8948H39.884H39.8731H39.8623H39.8515H39.8407H39.8299H39.819H39.8082H39.7974H39.7866H39.7757H39.7649H39.7541H39.7433H39.7325H39.7216H39.7108H39.7H39.6892H39.6784H39.6675H39.6567H39.6459H39.6351H39.6242H39.6134H39.6026H39.5918H39.581H39.5701H39.5593H39.5485H39.5377H39.5268H39.516H39.5052H39.4944H39.4835H39.4727H39.4619H39.4511H39.4402H39.4294H39.4186H39.4078H39.3969H39.3861H39.3753H39.3645H39.3536H39.3428H39.332H39.3212H39.3103H39.2995H39.2887H39.2778H39.267H39.2562H39.2454H39.2345H39.2237H39.2129H39.202H39.1912H39.1804H39.1696H39.1587H39.1479H39.1371H39.1262H39.1154H39.1046H39.0937H39.0829H39.0721H39.0613H39.0504H39.0396H39.0288H39.0179H39.0071H38.9963H38.9854H38.9746H38.9638H38.9529H38.9421H38.9313H38.9204H38.9096H38.8988H38.8879H38.8771H38.8663H38.8554C38.3973 0.1 38.0996 0.194278 37.9132 0.380824C37.7266 0.567539 37.6304 0.867668 37.6261 1.33051V1.3378V1.34554V1.35328V1.36103V1.36877V1.37651V1.38426V1.392V1.39974V1.40749V1.41523V1.42297V1.43072V1.43846V1.4462V1.45395V1.46169V1.46943V1.47718V1.48492V1.49266V1.50041V1.50815V1.51589V1.52364V1.53138V1.53912V1.54687V1.55461V1.56235V1.5701V1.57784V1.58558V1.59333V1.60107V1.60881V1.61656V1.6243V1.63204V1.63979V1.64753V1.65527V1.66302V1.67076V1.6785V1.68625V1.69399V1.70173V1.70948V1.71722V1.72496V1.73271V1.74045V1.74819V1.75594V1.76368V1.77142V1.77917V1.78691V1.79465V1.8024V1.81014V1.81788V1.82563V1.83337V1.84111V1.84886V1.8566V1.86434V1.87209V1.87983V1.88757V1.89532V1.90306V1.9108V1.91855V1.92629V1.93403V1.94178V1.94952V1.95726V1.96501V1.97275V1.98049V1.98824V1.99598V2.00372V2.01147V2.01921V2.02695V2.0347V2.04244V2.05018V2.05793V2.06567V2.07341V2.08116V2.0889V2.09664V2.10439V2.11213V2.11987V2.12762V2.13536V2.1431V2.15085V2.15859V2.16633V2.17408V2.18182V2.18956V2.19731V2.20505V2.21279V2.22054V2.22828V2.23602V2.24377V2.25151V2.25925V2.267V2.27474V2.28248V2.29023V2.29797V2.30571V2.31346V2.3212V2.32894V2.33669V2.34443V2.35217V2.35992V2.36766V2.3754V2.38315V2.39089V2.39863V2.40638V2.41412V2.42186V2.42961V2.43735V2.44509V2.45284V2.46058V2.46832V2.47607V2.48381V2.49155V2.4993V2.50704V2.51478V2.52253V2.53027V2.53801V2.54576V2.5535V2.56124V2.56899V2.57673V2.58447V2.59222V2.59996V2.6077V2.61545V2.62319V2.63093V2.63868V2.64642V2.65416V2.66191V2.66965V2.67739V2.68514V2.69288V2.70062V2.70837V2.71611V2.72385V2.7316V2.73934V2.74708V2.75483V2.76257V2.77031V2.77806V2.7858V2.79354V2.80129V2.80903V2.81677V2.82452V2.83226V2.84V2.84775V2.85549V2.86323V2.87098V2.87872V2.88646V2.89421V2.90195V2.90969V2.91744V2.92518V2.93292V2.94067V2.94841V2.95615V2.9639V2.97164V2.97938V2.98713V2.99487V3.00261V3.01035V3.0181V3.02584V3.03359V3.04133V3.04907V3.05681V3.06456V3.0723V3.08004V3.08779V3.09553V3.10327V3.11102V3.11876V3.1265V3.13425V3.14199V3.14973V3.15748V3.16522V3.17296V3.18071V3.18845V3.19619V3.20394V3.21168V3.21942V3.22717V3.23491V3.24265V3.2504V3.25814V3.26588V3.27363V3.28137V3.28911V3.29686V3.3046V3.31234V3.32009V3.32783V3.33557V3.34332V3.35106V3.3588V3.36655V3.37429V3.38203V3.38978V3.39752V3.40526V3.41301V3.42075V3.42849V3.43624V3.44398V3.45172V3.45947V3.46721V3.47495V3.4827V3.49044V3.49818V3.50593V3.51367V3.52141V3.52916V3.5369V3.54464V3.55239V3.56013V3.56787V3.57562V3.58336V3.5911V3.59885V3.60659V3.61433V3.62208V3.62982V3.63756V3.64531V3.65305V3.66079V3.66854V3.67628V3.68402V3.69177V3.69951V3.70725V3.715V3.72274V3.73048V3.73823V3.74597V3.75371V3.76146V3.7692V3.77694V3.78469V3.79243V3.80017V3.80792V3.81566V3.8234V3.83115V3.83889V3.84663V3.85438V3.86212V3.86986V3.87761V3.88535V3.89309V3.90084V3.90858V3.91632V3.92407V3.93181V3.93955V3.9473V3.95504V3.96278V3.97053V3.97827V3.98601V3.99376V4.0015V4.00924V4.01699V4.02473V4.03247V4.04022V4.04796V4.0557V4.06345V4.07119V4.07893V4.08668V4.09442V4.10216V4.10991V4.11765V4.12539V4.13314V4.14088V4.14862V4.15637V4.16411V4.17185V4.1796V4.18734V4.19508V4.20283V4.21057V4.21831V4.22606V4.2338V4.24154V4.24929V4.25703V4.26477V4.27252V4.28026V4.288V4.29575V4.30349V4.31123V4.31898V4.32672V4.33446V4.34221V4.34995V4.35769V4.36544V4.37318V4.38092V4.38867V4.39641V4.40415V4.4119V4.41964V4.42738V4.43513V4.44287V4.45061V4.45836V4.4661V4.47384V4.48159V4.48933V4.49707V4.50482V4.51256V4.5203V4.52805V4.53579V4.54353V4.55128V4.55902V4.56676V4.57451V4.58225V4.58999V4.59774V4.60548V4.61322V4.62097V4.62871V4.63645V4.6442V4.65194V4.65968V4.66743V4.67517V4.68291V4.69066V4.6984V4.70614V4.71389V4.72163V4.72937V4.73712V4.74486V4.7526V4.76035V4.76809V4.77583V4.78358V4.79132V4.79906V4.80681V4.81455V4.82229V4.83004V4.83778V4.84552V4.85327V4.86101V4.86875V4.8765V4.88424V4.89198V4.89973V4.90747V4.91521V4.92296V4.9307V4.93844V4.94619V4.95393V4.96167V4.96942V4.97716V4.9849V4.99265V5.00039V5.00813V5.01588V5.02362V5.03136V5.03911V5.04685V5.05459V5.06234V5.07008V5.07782V5.08557V5.09331V5.10105V5.1088V5.11654V5.12428V5.13203V5.13977V5.14751V5.15526V5.163V5.17074V5.17849V5.18623V5.19397V5.20172V5.20946V5.2172V5.22495V5.23269V5.24043V5.24818V5.25592V5.26366V5.27141V5.27915V5.28689V5.29464C37.6261 5.75372 37.7185 6.04892 37.9024 6.23196C38.0864 6.41513 38.3836 6.50764 38.8469 6.50764C39.2094 6.50764 39.5718 6.50817 39.934 6.5087C41.0203 6.5103 42.1058 6.5119 43.1916 6.49912L43.1927 6.4991C43.3447 6.49911 43.4862 6.51365 43.5825 6.60053C43.6825 6.69081 43.706 6.83188 43.7017 7.00192M45.5724 9.95717L43.6018 6.99983M45.5724 9.95717V9.95835C45.5724 10.1094 45.5975 10.2363 45.6692 10.3434C45.7406 10.4497 45.8493 10.5234 45.9891 10.5866L45.99 10.587C47.3776 11.1985 48.1626 12.7957 47.8079 14.2401M45.5724 9.95717L47.8079 14.2401M43.7017 7.00192C43.7017 7.00208 43.7017 7.00223 43.7017 7.00239L43.6018 6.99983M43.7017 7.00192C43.7017 7.00179 43.7017 7.00167 43.7017 7.00154L43.6018 6.99983M43.7017 7.00192C43.6847 7.99819 43.6847 8.98594 43.7017 9.98222L43.7018 9.98393C43.7018 10.1259 43.679 10.2464 43.6117 10.3482C43.5445 10.4496 43.4419 10.5192 43.3104 10.5782L43.3095 10.5786C41.9879 11.1571 41.2523 12.4867 41.4343 13.9274M43.6018 6.99983C43.5847 7.99737 43.5847 8.98639 43.6018 9.98393C43.6018 10.2482 43.5165 10.3761 43.2694 10.487C41.906 11.0838 41.1476 12.4565 41.3351 13.94M41.4343 13.9274L41.3351 13.94M41.4343 13.9274C41.6328 15.4916 42.8725 16.6656 44.4437 16.7732L44.4437 16.7732C46.003 16.8805 47.4183 15.8155 47.8079 14.2401M41.4343 13.9274C41.4343 13.9274 41.4343 13.9274 41.4343 13.9274L41.3351 13.94M41.3351 13.94C41.5396 15.5514 42.8178 16.7621 44.4368 16.8729M44.4368 16.8729C46.0473 16.9838 47.5045 15.8839 47.905 14.264C48.2714 12.7719 47.4619 11.1264 46.0303 10.4955L44.4368 16.8729ZM44.4368 16.8729L47.8079 14.2401M43.2857 1.95476L43.2865 1.95476C43.4053 1.95476 43.522 1.97093 43.6048 2.04546C43.6912 2.12328 43.7148 2.23991 43.7102 2.37337M43.2857 1.95476L43.2524 4.5273M43.2857 1.95476C42.1614 1.96329 41.0456 1.96329 39.9213 1.95476V1.95476H39.9206C39.7893 1.95476 39.6723 1.97867 39.5942 2.06201C39.5168 2.14448 39.501 2.26032 39.5053 2.38129L43.2857 1.95476ZM43.7102 2.37337C43.7102 2.37347 43.7102 2.37357 43.7102 2.37367L43.6103 2.37022L43.7102 2.373C43.7102 2.37312 43.7102 2.37325 43.7102 2.37337ZM43.7102 2.37337C43.6932 2.98527 43.6932 3.58864 43.7102 4.20053L43.6103 4.20331L43.7102 4.20019C43.7149 4.34906 43.6835 4.47222 43.586 4.54928C43.4952 4.62102 43.3712 4.63152 43.2499 4.62727M43.2499 4.62727C43.2502 4.62728 43.2505 4.62728 43.2508 4.62729L43.2524 4.5273M43.2499 4.62727C43.2495 4.62726 43.2492 4.62725 43.2488 4.62723L43.2524 4.5273M43.2499 4.62727C42.8819 4.62162 42.5148 4.62351 42.1466 4.6254C41.9617 4.62635 41.7765 4.6273 41.5907 4.6273C41.4106 4.6273 41.2302 4.62635 41.05 4.6254C40.6912 4.6235 40.3335 4.62162 39.9826 4.62727M43.2524 4.5273C42.8831 4.52161 42.5139 4.52351 42.1446 4.5254C41.96 4.52635 41.7754 4.5273 41.5907 4.5273C41.4118 4.5273 41.2319 4.52635 41.052 4.5254C40.6922 4.52351 40.3324 4.52161 39.9802 4.5273M39.9826 4.62727C39.9829 4.62726 39.9831 4.62726 39.9834 4.62725L39.9802 4.5273M39.9826 4.62727C39.8437 4.63155 39.7124 4.61679 39.6206 4.53466C39.5256 4.44962 39.5009 4.31866 39.5053 4.16627M39.9826 4.62727C39.9823 4.62728 39.9821 4.62728 39.9819 4.62728L39.9802 4.5273M39.9802 4.5273L39.5053 4.16627M39.5053 4.16627L39.6053 4.16921L39.5053 4.16635C39.5053 4.16632 39.5053 4.1663 39.5053 4.16627ZM46.011 13.549L46.011 13.5491C46.0018 14.2768 45.3437 14.9281 44.6133 14.9096C44.6133 14.9096 44.6133 14.9096 44.6132 14.9096L44.6158 14.8096L46.011 13.549ZM46.011 13.549C46.0202 12.8044 45.4062 12.1611 44.6596 12.1518M46.011 13.549L44.6596 12.1518M44.6596 12.1518C43.9153 12.1427 43.2724 12.757 43.2632 13.5039L44.6596 12.1518Z" fill="black" stroke="white" stroke-width="0.2"/>
<path d="M35.9194 14.4539L35.9195 14.454C36.2121 14.4652 36.4989 14.4615 36.7898 14.4577C36.9372 14.4558 37.0856 14.4539 37.2364 14.4539C37.3897 14.4539 37.5416 14.4558 37.6928 14.4577L35.9194 14.4539ZM35.9194 14.4539C35.5975 14.4419 35.3401 14.3396 35.1636 14.1802M35.9194 14.4539L35.1636 14.1802M39.6076 13.5159C39.5997 13.2481 39.4936 13.0232 39.3159 12.8634C39.1374 12.7029 38.8807 12.6031 38.5645 12.5991L38.5638 12.5991L38.5638 12.5991C37.6874 12.5821 36.811 12.5821 35.9346 12.5991L35.9339 12.5991L35.9339 12.5991C35.6094 12.6031 35.3444 12.7071 35.1628 12.8725C34.982 13.0372 34.8785 13.2675 34.8823 13.5378L39.6076 13.5159ZM39.6076 13.5159C39.6148 14.0307 39.217 14.43 38.5875 14.4539L39.6076 13.5159ZM35.1636 14.1802C34.988 14.0216 34.8862 13.8011 34.8823 13.5379L35.1636 14.1802Z" fill="black" stroke="white" stroke-width="0.2"/>
<path d="M9.75751 22.4769C7.62076 22.4331 5.8222 24.2016 5.76981 26.3941L5.76981 26.3945L13.5559 26.4733L13.6559 26.4761C13.7172 24.3295 11.9496 22.5206 9.75751 22.4769ZM9.75751 22.4769L9.75546 22.5769L9.75745 22.4769C9.75747 22.4769 9.75749 22.4769 9.75751 22.4769ZM9.69633 20.6051L9.6966 20.6051C12.8873 20.5799 15.5016 23.1694 15.5351 26.3805C15.5686 29.5815 12.9552 32.2222 9.72964 32.2306L9.72937 32.2306C6.52969 32.2474 3.91581 29.6576 3.89061 26.4556C3.87393 23.2456 6.47076 20.6218 9.69633 20.6051Z" fill="black" stroke="white" stroke-width="0.2"/>
</svg>
