<svg width="13" height="13" viewBox="0 0 13 13" fill="none" xmlns="http://www.w3.org/2000/svg">
<path d="M5.22926 2.85701C5.93983 1.33935 6.29512 0.580517 6.85952 0.523391C6.92649 0.516614 6.99396 0.516614 7.06092 0.523391C7.62533 0.580517 7.98061 1.33935 8.69119 2.85701C8.89938 3.30168 9.00348 3.52401 9.18611 3.66982C9.20997 3.68887 9.23468 3.70681 9.26017 3.72359C9.45537 3.85209 9.69921 3.88225 10.1869 3.94256C11.8485 4.14806 12.6794 4.25081 12.9092 4.7673C12.9376 4.83118 12.9593 4.89787 12.9738 4.96626C13.0912 5.51927 12.4798 6.08976 11.2572 7.23073C10.8985 7.56547 10.7191 7.73284 10.6366 7.95131C10.6256 7.98046 10.616 8.0101 10.6077 8.04014C10.546 8.26536 10.5926 8.50624 10.6859 8.988C11.0037 10.6299 11.1626 11.4508 10.7419 11.8291C10.6905 11.8753 10.6344 11.9161 10.5746 11.9507C10.0851 12.2343 9.35185 11.8294 7.8853 11.0196C7.45425 10.7816 7.23873 10.6625 7.0049 10.6521C6.97513 10.6507 6.94532 10.6507 6.91555 10.6521C6.68172 10.6625 6.4662 10.7816 6.03515 11.0196C4.5686 11.8294 3.83533 12.2343 3.34583 11.9507C3.28602 11.9161 3.22996 11.8753 3.17856 11.8291C2.75787 11.4508 2.91678 10.6299 3.23459 8.988C3.32784 8.50624 3.37447 8.26536 3.31271 8.04014C3.30447 8.0101 3.29483 7.98046 3.28382 7.95131C3.20131 7.73284 3.02197 7.56547 2.66327 7.23073C1.44062 6.08976 0.829298 5.51927 0.94666 4.96626C0.961175 4.89787 0.982824 4.83118 1.01125 4.7673C1.24109 4.25081 2.07192 4.14806 3.73357 3.94256C4.22124 3.88225 4.46508 3.85209 4.66027 3.72359C4.68577 3.70681 4.71048 3.68887 4.73434 3.66982C4.91697 3.52401 5.02106 3.30168 5.22926 2.85701Z" fill="#F39629"/>
</svg>
