<svg width="13" height="13" viewBox="0 0 13 13" fill="none" xmlns="http://www.w3.org/2000/svg">
<path d="M4.54469 2.85701C5.25526 1.33935 5.61055 0.580517 6.17495 0.523391C6.24192 0.516614 6.30939 0.516614 6.37635 0.523391C6.94076 0.580517 7.29604 1.33935 8.00662 2.85701C8.21481 3.30168 8.31891 3.52401 8.50154 3.66982C8.5254 3.68887 8.55011 3.70681 8.5756 3.72359C8.7708 3.85209 9.01464 3.88225 9.5023 3.94256C11.164 4.14806 11.9948 4.25081 12.2246 4.7673C12.2531 4.83118 12.2747 4.89787 12.2892 4.96626C12.4066 5.51927 11.7953 6.08976 10.5726 7.23073C10.2139 7.56547 10.0346 7.73284 9.95206 7.95131C9.94105 7.98046 9.93141 8.0101 9.92317 8.04014C9.86141 8.26536 9.90804 8.50624 10.0013 8.988C10.3191 10.6299 10.478 11.4508 10.0573 11.8291C10.0059 11.8753 9.94986 11.9161 9.89005 11.9507C9.40055 12.2343 8.66728 11.8294 7.20073 11.0196C6.76968 10.7816 6.55416 10.6625 6.32033 10.6521C6.29056 10.6507 6.26075 10.6507 6.23098 10.6521C5.99715 10.6625 5.78163 10.7816 5.35058 11.0196C3.88403 11.8294 3.15076 12.2343 2.66126 11.9507C2.60145 11.9161 2.54539 11.8753 2.49399 11.8291C2.0733 11.4508 2.23221 10.6299 2.55002 8.988C2.64327 8.50624 2.6899 8.26536 2.62813 8.04014C2.6199 8.0101 2.61026 7.98046 2.59925 7.95131C2.51674 7.73284 2.3374 7.56547 1.9787 7.23073C0.756052 6.08976 0.144728 5.51927 0.26209 4.96626C0.276605 4.89787 0.298253 4.83118 0.32668 4.7673C0.556518 4.25081 1.38735 4.14806 3.049 3.94256C3.53667 3.88225 3.78051 3.85209 3.9757 3.72359C4.0012 3.70681 4.02591 3.68887 4.04977 3.66982C4.2324 3.52401 4.33649 3.30168 4.54469 2.85701Z" fill="white"/>
</svg>
