<svg width="66" height="72" viewBox="0 0 66 72" fill="none" xmlns="http://www.w3.org/2000/svg">
<path d="M44.7017 57.0477C45.5073 59.0013 46.3879 60.7858 47.3246 62.5327C48.1489 64.0543 49.0482 65.5382 49.8913 67.041C50.0786 67.3791 50.2847 67.4918 50.6594 67.473C52.102 67.4542 53.5633 67.4542 55.0059 67.4542C55.4742 67.4542 55.9613 67.5106 55.9426 68.1304C55.9239 68.694 55.4742 68.7315 55.0246 68.7315C49.348 68.7315 43.6526 68.7315 37.976 68.7315C37.4889 68.7315 37.0205 68.694 37.0392 68.0741C37.058 67.5106 37.5076 67.4542 37.9572 67.4542C39.456 67.4542 40.9361 67.4542 42.4536 67.4542C41.573 64.2985 38.0134 61.2742 33.7232 61.4057C30.0699 61.5184 26.1918 64.336 25.5736 67.4542C26.7913 67.4542 28.0091 67.4542 29.2269 67.4542C29.3955 67.4542 29.5454 67.4542 29.714 67.4542C30.1074 67.473 30.4071 67.6608 30.4259 68.0741C30.4259 68.4874 30.1449 68.694 29.7327 68.694C29.2643 68.7128 28.796 68.7128 28.3276 68.7128C22.5948 68.7128 16.8619 68.7128 11.1478 68.7128C11.0167 68.7128 10.8668 68.7128 10.7357 68.7128C10.361 68.6752 10.1174 68.4686 10.1174 68.0929C10.1174 67.6984 10.3797 67.4918 10.7544 67.473C11.1291 67.4542 11.5038 67.4542 11.8785 67.4542C13.5459 67.4542 15.1945 67.4542 16.8619 67.4542C17.1055 67.4542 17.3303 67.473 17.4989 67.1912C19.4286 63.9791 21.2084 60.6919 22.6884 57.2544C22.7072 57.2168 22.6884 57.1605 22.6884 57.0477C22.2763 57.0477 21.8641 57.0477 21.4519 57.0477C20.8899 57.0477 20.5714 56.8036 20.5714 56.2025C20.5714 55.0566 20.5714 53.9108 20.5901 52.7649C20.5901 52.2578 20.8524 51.9948 21.377 51.9948C22.3512 51.9948 23.3442 51.976 24.3184 52.0136C24.7305 52.0324 24.8804 51.8633 25.0115 51.5064C25.8359 49.1208 26.604 46.7164 27.2784 44.2745C27.4096 43.8236 27.3721 43.6358 26.8475 43.6546C24.6368 43.7109 25.0115 43.5043 24.9928 41.701C24.9928 41.1938 24.9928 40.6679 24.9928 40.1607C24.9928 39.3154 25.124 39.2027 25.9857 39.1839C26.6789 39.1651 27.3909 39.1651 28.084 39.1839C28.4213 39.1839 28.5711 39.0712 28.6461 38.7331C29.5266 34.6569 30.1823 30.5432 30.5945 26.3919C30.8943 23.5179 31.0067 20.6439 31.1191 17.7699C31.1378 17.2252 31.0629 16.981 30.4259 16.9997C29.1707 17.0373 29.1519 16.981 29.1332 15.7036C29.1332 14.971 29.1332 14.2572 29.1332 13.5247C29.1519 12.7357 29.3018 12.5291 30.0699 12.5667C30.632 12.5854 30.838 12.3788 30.7444 11.8529C30.4446 10.1623 31.0254 8.84738 32.4305 7.88938C33.0113 7.49491 33.1424 6.95017 33.1237 6.25515C33.0675 4.47065 33.1049 2.68615 33.1049 0.920428C33.1049 0.469606 33.1424 0.0187842 33.7232 0C34.2852 0 34.3789 0.432038 34.3789 0.901644C34.3789 2.79885 34.3976 4.69606 34.3602 6.59327C34.3602 7.06287 34.4538 7.40099 34.8285 7.68276C34.8473 7.70154 34.866 7.72032 34.8847 7.73911C36.3648 8.77224 37.0954 10.1435 36.7395 11.9843C36.6458 12.454 36.8706 12.5667 37.3203 12.5667C38.2195 12.5479 38.3694 12.7169 38.3694 13.6374C38.3694 14.4639 38.3881 15.2716 38.3694 16.0981C38.3507 16.887 38.2008 17.0373 37.4139 17.0373C37.2828 17.0373 37.1329 17.0561 37.0018 17.0373C36.5521 16.981 36.4023 17.1312 36.421 17.6196C36.5334 22.898 36.9643 28.1388 37.8448 33.342C38.1446 35.1265 38.4631 36.8923 38.8565 38.658C38.9502 39.09 39.1001 39.2403 39.5497 39.2215C40.2429 39.1839 40.9548 39.2403 41.648 39.2215C42.2662 39.2027 42.566 39.4469 42.5473 40.0856C42.5285 41.006 42.5285 41.9076 42.5473 42.8281C42.566 43.4292 42.2662 43.6546 41.7042 43.6922C41.1984 43.7297 40.4677 43.4104 40.2241 43.88C40.0555 44.2181 40.4115 44.838 40.5426 45.3264C41.1047 47.3739 41.7979 49.3838 42.4723 51.4125C42.6409 51.9009 42.8657 52.0511 43.3528 52.0324C44.2708 51.9948 45.1701 52.0324 46.0881 52.0324C46.6876 52.0136 46.9312 52.2953 46.9312 52.8776C46.9124 53.9859 46.9124 55.0754 46.9312 56.1837C46.9312 56.8223 46.6502 57.0853 46.0319 57.0665C45.601 57.0477 45.2076 57.0477 44.7017 57.0477ZM48.6548 67.4918C48.5424 67.2664 48.5049 67.1537 48.4487 67.0597C46.594 64.0167 44.964 60.8609 43.5777 57.5925C43.3716 57.1041 43.0531 57.0477 42.6035 57.0477C36.6458 57.0665 30.6882 57.0665 24.7305 57.0477C24.2809 57.0477 24.0748 57.198 23.9062 57.6113C22.576 60.7482 21.0023 63.7913 19.2412 66.7216C19.1101 66.947 18.8853 67.1537 18.904 67.5106C20.3091 67.5106 21.7142 67.4542 23.1006 67.5294C23.8687 67.5669 24.2247 67.3415 24.5057 66.6089C26.2293 62.1007 31.3814 59.377 36.065 60.4477C39.7558 61.293 42.3037 63.472 43.6901 67.0222C43.7837 67.2476 43.8025 67.5294 44.1584 67.5294C45.6197 67.473 47.0998 67.4918 48.6548 67.4918ZM33.6857 39.1839C33.6857 39.2027 33.6857 39.2027 33.6857 39.1839C34.7349 39.1839 35.784 39.1839 36.8332 39.1839C37.6575 39.1839 37.6575 39.1839 37.4889 38.3574C36.14 31.952 35.3344 25.4714 35.1658 18.9345C35.147 18.3334 35.3906 17.5633 35.0346 17.15C34.6412 16.6992 33.8356 17.0937 33.2361 16.981C32.5242 16.8682 32.2806 17.15 32.2806 17.8826C32.2432 22.2218 31.8872 26.5421 31.2689 30.8249C30.913 33.3796 30.5008 35.9155 29.92 38.4138C29.7702 39.0337 29.9388 39.1839 30.5383 39.1651C31.5874 39.1651 32.6366 39.1839 33.6857 39.1839ZM33.6483 55.7892C37.0954 55.7892 40.5239 55.7892 43.9711 55.7892C45.676 55.7892 45.6385 55.7892 45.6947 54.0611C45.7134 53.4224 45.5261 53.2345 44.8891 53.2533C37.7699 53.2721 30.6694 53.2721 23.5502 53.2721C21.7517 53.2721 21.7892 53.2721 21.7704 55.0566C21.7704 55.7141 21.9953 55.808 22.576 55.808C26.248 55.7892 29.9575 55.7892 33.6483 55.7892ZM33.6295 42.4148C35.784 42.4148 37.9198 42.4148 40.0743 42.4148C41.2171 42.4148 41.1609 42.396 41.2358 41.269C41.292 40.5552 41.0485 40.4425 40.3928 40.4425C36.0838 40.48 31.756 40.4613 27.4283 40.4613C26.1544 40.4613 26.1731 40.4613 26.1544 41.7762C26.1356 42.3021 26.3042 42.4524 26.8288 42.4336C29.1145 42.396 31.3626 42.4148 33.6295 42.4148ZM33.667 52.0136C34.4164 52.0136 35.1658 51.9948 35.9152 52.0324C36.4397 52.0511 36.4959 51.9009 36.3273 51.45C35.5592 49.2711 35.0159 47.017 34.6599 44.7253C34.4913 43.5982 34.4351 43.5794 33.2923 43.6734C33.0113 43.6922 32.8614 43.7861 32.8239 44.0678C32.4867 46.6225 31.8685 49.1208 31.0441 51.544C30.8942 51.976 31.0816 52.0136 31.4188 52.0136C32.1682 51.9948 32.9176 52.0136 33.667 52.0136ZM41.2358 52.0136C41.2171 51.8821 41.2358 51.7882 41.1984 51.6942C40.3178 49.1772 39.531 46.6413 38.819 44.0678C38.7254 43.7485 38.5568 43.6734 38.257 43.6734C37.6013 43.6734 36.9456 43.6734 36.2899 43.6546C35.8964 43.6358 35.7653 43.7485 35.8215 44.1805C36.2149 46.7352 36.8332 49.2147 37.6762 51.6379C37.7699 51.9009 37.8823 52.0136 38.1821 52.0136C39.2125 51.9948 40.2241 52.0136 41.2358 52.0136ZM27.8592 52.0136C28.3089 52.0136 28.7398 51.9948 29.1894 52.0324C29.4704 52.0511 29.6016 51.9196 29.6952 51.6755C30.5196 49.2523 31.1565 46.7915 31.5312 44.2557C31.5874 43.8612 31.5312 43.6358 31.0629 43.6734C30.4259 43.7109 29.8076 43.6922 29.1707 43.6734C28.8896 43.6734 28.6836 43.7109 28.5899 44.049C27.878 46.6037 27.1098 49.1208 26.2293 51.6191C26.1356 51.9009 26.1544 52.0511 26.5291 52.0324C26.9787 51.9948 27.4096 52.0136 27.8592 52.0136ZM33.6857 15.76C34.0417 15.76 34.3789 15.76 34.7349 15.76C35.0908 15.76 35.4281 15.76 35.784 15.76C37.0954 15.76 37.0767 15.76 37.0767 14.4075C37.0767 13.9191 36.9081 13.7689 36.421 13.7876C34.8285 13.8064 33.2361 13.7876 31.6436 13.8064C30.1823 13.8064 30.1823 13.8252 30.2947 15.2904C30.3135 15.6473 30.4259 15.7788 30.8006 15.7788C31.7748 15.76 32.7303 15.76 33.6857 15.76ZM33.6857 12.5479C34.1354 12.5479 34.5663 12.5479 35.0159 12.5479C35.2594 12.5479 35.4281 12.4915 35.4281 12.191C35.4281 11.0639 35.6154 9.95565 34.4913 9.11036C33.5921 8.43412 33.667 8.32142 32.8614 9.12914C32.393 9.59875 31.8685 9.95565 31.9059 10.8009C31.9809 12.5291 31.9247 12.5291 33.6857 12.5479Z" fill="black"/>
<path d="M14.7074 33.0792C13.8456 33.0792 12.9838 33.0792 12.1033 33.0792C11.6911 33.0792 11.3351 32.9477 11.3351 32.4781C11.3351 31.9897 11.6911 31.8394 12.1033 31.8394C13.677 31.8394 15.232 31.8582 16.8057 31.8394C18.267 31.8206 19.2412 31.1632 19.6159 29.961C19.9531 28.8903 19.6908 27.9511 18.8852 27.2185C18.0609 26.4483 17.068 26.2981 16.0188 26.7489C14.9697 27.1809 14.9135 27.1809 14.4264 26.1853C13.6395 24.5511 12.2906 23.687 10.5108 23.687C8.73101 23.687 7.40085 24.5699 6.61399 26.1853C6.18309 27.087 6.03321 27.1433 5.17141 26.7677C3.50402 26.0163 1.78043 26.9179 1.42447 28.7212C1.33079 29.172 1.42447 29.8483 0.675079 29.7356C-0.07431 29.6229 0.131772 28.9842 0.206711 28.4958C0.525201 26.3544 2.7359 24.8517 4.89039 25.3776C5.41497 25.5091 5.63978 25.3776 5.88333 24.9644C6.37044 24.1942 7.02615 23.6119 7.85048 23.1987C8.16897 23.0296 8.31885 22.8418 8.35632 22.4473C8.6186 19.6297 10.6794 17.3192 13.4147 16.7369C16.15 16.1546 18.9976 17.4319 20.3091 19.8926C20.5526 20.3622 20.7587 20.4186 21.2645 20.2495C23.4752 19.4982 25.8358 20.7191 26.4915 22.9545C26.6227 23.4241 26.8288 23.6307 27.3159 23.5556C27.4657 23.5368 27.6344 23.5556 27.803 23.5743C28.1589 23.6119 28.3463 23.8185 28.3463 24.1942C28.3463 24.5323 28.1589 24.739 27.8404 24.7577C27.2409 24.7953 26.6227 24.8141 26.0232 24.7577C25.4424 24.7202 25.4799 24.1942 25.4237 23.7998C25.1614 22.034 23.5314 20.9445 21.8266 21.3766C21.5081 21.4517 21.2271 21.602 20.9461 21.7898C20.2154 22.2407 19.9531 22.1655 19.6534 21.339C19.0351 19.7048 17.9298 18.5777 16.2436 18.0706C13.3772 17.2065 10.3984 18.9722 9.76142 21.8274C9.64901 22.3158 9.66775 22.5224 10.286 22.5036C12.4405 22.4097 14.1266 23.3301 15.3069 25.1522C15.5317 25.4903 15.7003 25.5467 16.075 25.4528C17.5738 25.0395 18.9227 25.3588 19.9906 26.5047C21.1147 27.7069 21.3957 29.1533 20.7587 30.6748C20.1592 32.14 19.0164 32.9665 17.4239 33.0792C16.5434 33.1355 15.6441 33.0979 14.7636 33.0979C14.7074 33.0604 14.7074 33.0604 14.7074 33.0792Z" fill="black"/>
<path d="M64.3919 37.5309C63.7924 37.5309 63.1742 37.5309 62.5746 37.5309C62.1437 37.5309 61.7316 37.4182 61.7316 36.9111C61.7316 36.3851 62.1063 36.2724 62.5559 36.2724C63.7737 36.2724 64.9914 36.2912 66.2092 36.2724C67.2209 36.2536 67.8204 35.5962 67.8016 34.6194C67.7829 33.9056 67.4457 33.4172 66.7712 33.1918C65.9469 32.9288 65.1226 32.9664 64.2982 33.2669C63.3802 33.605 63.1367 33.4735 63.0243 32.5343C62.9306 31.8017 62.6496 31.2007 61.9189 30.9752C61.1883 30.7498 60.6075 31.0316 60.1204 31.6139C59.6708 32.1399 59.3897 32.0647 58.8277 31.4448C57.0292 29.3974 54.1815 29.2659 52.2331 31.1255C51.8022 31.5388 51.4837 32.0272 51.2589 32.5719C51.0153 33.173 50.6594 33.3233 50.0411 33.0603C47.9428 32.1586 46.3504 33.0415 45.9757 35.3144C45.9007 35.8216 45.6572 36.0658 45.1513 36.0658C44.4582 36.0658 43.7462 36.0658 43.053 36.0658C42.6596 36.0658 42.3599 35.8967 42.3599 35.4459C42.3599 34.9951 42.6784 34.7884 43.0718 34.8448C44.2333 35.0326 44.8141 34.6194 45.3012 33.4548C45.9944 31.8205 47.9615 31.0879 49.7039 31.5576C50.1535 31.689 50.3596 31.5763 50.6031 31.2007C52.4954 28.2891 56.4671 27.7068 59.1087 29.9609C59.4272 30.2239 59.6333 30.3366 60.0455 30.0924C61.6004 29.172 63.4364 29.8106 64.0922 31.4824C64.242 31.8581 64.3919 31.9332 64.7479 31.8581C65.3849 31.7078 66.0406 31.7454 66.6963 31.8769C68.1763 32.1962 69.1318 33.4172 69.0381 34.8448C68.9257 36.31 67.7829 37.437 66.2841 37.5122C65.6097 37.5497 65.0102 37.5122 64.3919 37.5309Z" fill="black"/>
<path d="M38.0697 71.9812C36.6271 71.9812 35.1846 71.9812 33.7232 71.9812C33.2736 71.9812 32.824 71.9248 32.824 71.3613C32.824 70.7978 33.2549 70.7227 33.7045 70.7227C36.6271 70.7227 39.531 70.7227 42.4536 70.7227C42.9033 70.7227 43.3529 70.779 43.3529 71.3613C43.3529 71.9248 42.922 72 42.4724 72C41.0111 71.9812 39.5497 71.9812 38.0697 71.9812Z" fill="black"/>
<path d="M5.17141 20.2308C5.56484 20.2308 5.95827 20.212 6.3517 20.2308C6.72639 20.2495 6.96994 20.4374 6.98868 20.8319C7.00741 21.2263 6.74513 21.4517 6.38917 21.4705C5.52737 21.5081 4.66557 21.5081 3.82251 21.4705C3.46655 21.4517 3.223 21.1888 3.24173 20.8131C3.26047 20.475 3.50402 20.2683 3.84124 20.2495C4.29088 20.2308 4.72178 20.2495 5.17141 20.2308Z" fill="black"/>
<path d="M59.5957 68.7503C59.1086 68.7315 58.4154 68.8818 58.4154 68.1492C58.3967 67.3603 59.1086 67.5105 59.6144 67.4917C59.8205 67.4917 60.0266 67.473 60.2327 67.4917C60.6261 67.5105 60.9071 67.6984 60.9071 68.1304C60.9071 68.5625 60.6073 68.7315 60.2139 68.7503C60.0078 68.7503 59.8018 68.7503 59.5957 68.7503Z" fill="black"/>
<path d="M0.918546 21.4893C0.468912 21.508 0.0192787 21.4329 0.00054394 20.8882C-0.0181908 20.2871 0.450177 20.2307 0.918546 20.2307C1.36818 20.2307 1.81781 20.2871 1.83655 20.8318C1.85528 21.4141 1.40565 21.508 0.918546 21.4893Z" fill="black"/>
</svg>
